<?xml version="1.0" standalone="no"?>
<!DOCTYPE svg PUBLIC "-//W3C//DTD SVG 20010904//EN"
 "http://www.w3.org/TR/2001/REC-SVG-20010904/DTD/svg10.dtd">
<svg version="1.0" xmlns="http://www.w3.org/2000/svg"
 width="737.000000pt" height="737.000000pt" viewBox="0 0 737.000000 737.000000"
 preserveAspectRatio="xMidYMid meet">
<metadata>
Created by potrace 1.14, written by Peter Selinger 2001-2017
</metadata>
<g transform="translate(0.000000,737.000000) scale(0.100000,-0.100000)"
fill="#000000" stroke="none">
<path d="M0 3685 l0 -3685 3685 0 3685 0 0 3685 0 3685 -3685 0 -3685 0 0
-3685z m1951 2695 c119 -22 304 -134 405 -243 207 -226 288 -386 319 -633 36
-282 28 -528 -26 -864 -45 -281 -152 -683 -238 -894 -57 -140 -162 -335 -218
-409 -85 -111 -220 -234 -325 -299 -33 -20 -64 -40 -69 -45 -5 -5 34 -110 91
-246 101 -240 369 -929 465 -1197 29 -80 77 -203 106 -275 51 -124 54 -134 53
-212 -2 -101 -21 -138 -84 -170 -175 -90 -453 113 -679 494 -99 168 -106 182
-513 1113 -66 151 -145 331 -175 400 -107 242 -185 441 -320 820 -30 85 -100
271 -154 413 -55 142 -99 260 -99 263 0 3 -28 65 -62 137 -33 73 -76 177 -95
231 -67 197 -139 346 -119 244 18 -88 18 -93 -2 -111 -31 -28 -70 -18 -106 26
-74 92 -32 297 114 561 164 294 401 516 725 676 241 119 433 187 610 215 98
16 323 19 396 5z m4267 -676 c69 -17 224 -91 299 -142 68 -46 151 -133 190
-199 101 -172 116 -432 44 -753 -62 -277 -171 -553 -292 -740 -22 -34 -39 -63
-37 -65 2 -1 46 -12 98 -23 129 -27 198 -55 270 -108 216 -159 374 -618 373
-1084 0 -170 -14 -252 -72 -407 -139 -377 -382 -612 -725 -702 -64 -17 -110
-21 -231 -21 -122 0 -158 -3 -186 -17 -18 -9 -60 -17 -94 -18 -33 -1 -80 -7
-104 -14 -61 -17 -127 0 -199 53 -140 103 -173 175 -334 711 -58 196 -127 548
-184 945 -83 580 -111 747 -168 990 -67 282 -81 424 -52 495 20 48 70 77 121
71 44 -5 85 -44 193 -184 88 -114 106 -144 203 -336 199 -394 332 -778 433
-1256 53 -252 83 -421 101 -580 9 -80 27 -221 40 -313 14 -93 25 -173 25 -178
0 -15 156 68 231 122 224 164 369 460 415 854 30 252 8 465 -56 555 -27 39
-91 75 -159 90 -75 18 -312 8 -366 -15 -63 -26 -157 -31 -208 -11 -105 40
-145 157 -87 253 25 41 90 79 169 97 35 8 68 19 72 23 32 32 321 783 430 1118
32 98 34 251 3 292 -62 83 -237 115 -422 77 -220 -45 -338 -104 -879 -436
-122 -75 -176 -114 -221 -163 -68 -74 -92 -80 -140 -40 -78 65 -47 152 140
389 136 174 357 377 543 501 148 98 326 166 484 185 85 10 271 1 339 -16z
m-2751 -277 c181 -96 274 -204 398 -460 109 -225 173 -379 230 -557 25 -80 67
-203 91 -275 25 -71 58 -175 74 -230 36 -127 224 -967 284 -1270 25 -126 67
-322 95 -435 27 -113 57 -243 66 -290 9 -47 23 -116 31 -155 8 -38 18 -131 21
-205 5 -111 3 -146 -11 -195 -22 -76 -51 -122 -90 -146 -44 -27 -79 -24 -155
14 -167 82 -398 386 -535 707 -57 132 -151 436 -190 613 -8 34 -3 34 -240 -6
-180 -31 -189 -34 -202 -60 -9 -16 -27 -30 -46 -35 l-31 -8 -39 -199 c-21
-110 -49 -265 -63 -345 -37 -220 -58 -290 -109 -370 -41 -63 -49 -70 -78 -70
-28 0 -39 8 -71 51 -52 71 -64 96 -89 196 -22 84 -23 105 -23 503 0 468 1 476
85 1245 33 297 62 565 65 595 52 556 130 983 214 1163 46 101 146 222 194 236
51 15 79 12 124 -12z"/>
<path d="M1733 5989 c-115 -17 -393 -128 -683 -273 -273 -137 -405 -228 -596
-409 l-106 -102 103 -89 c140 -120 275 -258 324 -331 22 -33 76 -109 120 -170
249 -345 485 -741 651 -1093 40 -84 74 -149 77 -145 3 4 13 40 22 78 9 39 52
165 95 280 93 249 134 385 205 681 89 371 139 640 149 814 25 391 26 485 7
552 -20 76 -50 115 -130 175 -52 40 -60 43 -116 42 -33 -1 -88 -5 -122 -10z"/>
<path d="M3456 4355 c-13 -248 -36 -630 -41 -690 -39 -456 -52 -581 -86 -792
-26 -170 -27 -164 19 -151 20 6 111 25 200 43 90 19 165 35 167 37 2 2 -9 80
-25 173 -31 183 -99 697 -125 940 -9 83 -35 245 -59 360 l-44 210 -6 -130z"/>
</g>
</svg>
